<?xml version="1.0" encoding="UTF-8" ?>
<!DOCTYPE svg PUBLIC "-//W3C//DTD SVG 1.1//EN" "http://www.w3.org/Graphics/SVG/1.1/DTD/svg11.dtd">
<svg width="225pt" height="225pt" viewBox="0 0 225 225" version="1.1" xmlns="http://www.w3.org/2000/svg">
<g id="#ffffffff">
</g>
<g id="#000000ff">
<path fill="#000000" opacity="1.00" d=" M 11.60 14.75 C 12.75 11.32 14.81 7.06 18.99 6.98 C 27.80 7.55 35.90 11.56 43.76 15.27 C 61.01 23.99 77.21 34.80 92.04 47.20 C 105.54 45.79 119.21 45.70 132.68 47.49 C 144.40 37.62 157.01 28.83 170.29 21.20 C 179.30 16.12 188.54 11.26 198.50 8.33 C 202.07 7.49 206.14 6.03 209.55 8.17 C 211.51 9.92 212.56 12.41 213.44 14.83 C 215.52 21.03 216.32 27.56 217.02 34.04 C 217.77 44.33 218.49 54.67 217.69 64.98 C 216.98 80.28 215.58 95.67 211.50 110.48 C 210.84 112.07 211.49 113.70 211.85 115.27 C 214.84 127.30 215.59 139.73 215.89 152.08 C 215.70 157.80 212.45 162.79 209.35 167.39 C 201.96 177.49 192.63 186.06 182.50 193.35 C 161.00 208.95 134.68 218.75 107.91 217.89 C 84.59 216.81 62.07 208.07 43.00 194.84 C 31.79 186.97 21.42 177.67 13.47 166.46 C 10.97 162.66 8.40 158.62 7.78 154.02 C 7.28 138.88 9.25 123.72 12.99 109.07 C 8.38 89.73 6.95 69.76 7.01 49.93 C 7.69 38.14 7.91 26.09 11.60 14.75 M 31.56 43.39 C 28.64 54.83 28.90 66.74 28.82 78.45 C 38.12 66.73 51.08 58.30 65.11 53.32 C 55.84 47.91 46.41 42.27 35.93 39.60 C 33.28 38.50 32.05 41.35 31.56 43.39 M 159.35 53.60 C 173.65 59.04 186.92 67.87 196.06 80.30 C 196.24 68.20 196.39 55.89 193.61 44.04 C 193.08 41.85 191.98 38.40 189.00 39.59 C 178.35 42.36 168.80 48.15 159.35 53.60 M 32.90 121.96 C 33.72 131.02 38.58 139.93 46.60 144.53 C 53.49 148.36 61.94 149.95 69.58 147.51 C 75.81 145.55 81.45 141.42 85.07 135.97 C 84.50 124.40 76.11 113.82 64.94 110.65 C 68.80 117.41 68.41 125.53 68.02 133.03 C 67.49 136.67 67.11 140.77 64.47 143.56 C 63.18 145.05 60.90 144.22 60.23 142.58 C 57.37 137.57 57.40 131.53 57.27 125.93 C 57.61 120.47 57.62 114.32 61.47 109.98 C 50.51 107.66 39.44 113.28 32.90 121.96 M 161.91 109.94 C 166.94 116.06 166.13 124.63 166.01 132.05 C 165.30 136.33 165.28 142.19 160.88 144.43 C 157.50 143.86 156.81 139.83 156.05 137.06 C 154.62 128.32 154.24 118.68 158.50 110.63 C 154.42 112.23 150.29 114.04 147.17 117.23 C 141.85 122.03 139.14 129.00 138.11 135.96 C 141.32 140.10 145.27 143.77 150.05 146.03 C 160.55 151.14 174.08 148.52 182.26 140.30 C 187.15 135.53 189.64 128.88 190.65 122.24 C 184.39 113.17 172.91 107.65 161.91 109.94 M 96.87 135.00 C 90.52 142.89 85.80 152.66 76.58 157.72 C 61.51 166.64 44.93 172.60 28.48 178.44 C 33.40 182.66 38.65 186.48 44.03 190.09 C 63.46 202.86 85.46 213.23 109.03 214.36 C 121.26 214.64 133.42 212.09 144.87 207.91 C 163.13 201.10 179.96 190.78 195.00 178.44 C 178.42 172.59 161.72 166.54 146.57 157.51 C 136.54 151.92 131.91 140.83 124.56 132.55 C 120.90 128.25 116.07 123.16 109.85 124.17 C 104.22 125.77 100.41 130.64 96.87 135.00 Z" />
<path fill="#000000" opacity="1.00" d=" M 96.89 158.02 C 102.12 152.80 110.31 153.60 117.09 153.94 C 120.71 154.54 126.45 155.28 126.63 159.96 C 126.16 167.11 120.43 173.02 113.99 175.56 C 115.39 182.69 121.62 188.41 128.86 189.16 C 137.37 190.64 145.90 185.20 149.08 177.34 C 148.11 182.88 144.92 188.13 139.94 190.91 C 133.26 194.99 124.30 194.64 117.80 190.34 C 117.98 194.47 116.23 200.66 111.08 200.36 C 106.73 199.41 105.49 194.20 105.74 190.35 C 99.95 194.06 92.44 194.87 86.08 192.16 C 79.73 189.75 75.25 183.67 74.28 177.01 C 76.72 183.25 82.31 188.30 89.08 189.11 C 97.97 190.76 108.17 184.78 109.28 175.40 C 102.27 172.92 96.21 165.72 96.89 158.02 Z" />
</g>
</svg>
